<?xml version="1.0" ?><svg data-name="Layer 2" id="Layer_2" viewBox="0 0 512 512" xmlns="http://www.w3.org/2000/svg"><defs><style>.cls-1{fill:#fff;}</style></defs><title/><path d="M426.4033,499.9951a12.2272,12.2272,0,0,1-2.3545-.23c-23.2646-4.5625-55.23-16.4472-75.3925-47.1591A101.4522,101.4522,0,0,1,336.4238,426.36a27.8917,27.8917,0,0,0-26.8134-19.95H48a36.0406,36.0406,0,0,1-36-36v-272a36.0407,36.0407,0,0,1,36-36H464a36.0407,36.0407,0,0,1,36,36v272a36.0406,36.0406,0,0,1-36,36H445.335a28.1079,28.1079,0,0,0-21.1211,9.5665,27.6947,27.6947,0,0,0-6.6729,21.8466,86.274,86.274,0,0,0,18.1465,42.667,11.957,11.957,0,0,1,.8535,13.77A11.8133,11.8133,0,0,1,426.4033,499.9951ZM48,70.4106a28.0315,28.0315,0,0,0-28,28v272a28.0314,28.0314,0,0,0,28,28H309.61a35.8485,35.8485,0,0,1,34.47,25.6275,93.4009,93.4009,0,0,0,11.2637,24.1772c18.6367,28.3872,48.4853,39.4326,70.2441,43.6993a3.8371,3.8371,0,0,0,4.1211-1.815,3.9641,3.9641,0,0,0-.291-4.64,94.26,94.26,0,0,1-19.8086-46.5987,35.6912,35.6912,0,0,1,8.5918-28.1616,36.11,36.11,0,0,1,27.1338-12.2886H464a28.0314,28.0314,0,0,0,28-28v-272a28.0315,28.0315,0,0,0-28-28Z"/><path class="cls-1" d="M48,277.1207V45.6431A27.2327,27.2327,0,0,1,75.2327,18.41H429.2573A27.2327,27.2327,0,0,1,456.49,45.6431V277.1207a27.2327,27.2327,0,0,1-27.2327,27.2327H206.6211a27.2646,27.2646,0,0,0-26.0766,19.3936,82.7615,82.7615,0,0,1-9.9975,21.4554c-16.7138,25.4589-43.541,35.0472-61.9695,38.6611a6.8066,6.8066,0,0,1-6.5823-10.9481,77.3706,77.3706,0,0,0,14.0865-27.713,76.626,76.626,0,0,0,2.0639-10.27,27.18,27.18,0,0,0-27.0288-30.5789H75.2327A27.2327,27.2327,0,0,1,48,277.1207Z"/><path d="M107.2246,387.9961a10.6455,10.6455,0,0,1-9.1328-5.1655,10.7673,10.7673,0,0,1,.7686-12.3994A72.8233,72.8233,0,0,0,114.18,334.4136a22.9754,22.9754,0,0,0-5.5361-18.1221,23.3252,23.3252,0,0,0-17.5264-7.938H75.2324A31.2681,31.2681,0,0,1,44,277.1206V45.6431A31.2681,31.2681,0,0,1,75.2324,14.41H429.2578A31.2681,31.2681,0,0,1,460.49,45.6431V277.1206a31.2681,31.2681,0,0,1-31.2324,31.2329H206.6211a23.1439,23.1439,0,0,0-22.2481,16.5547,86.9386,86.9386,0,0,1-10.4824,22.49c-17.2724,26.31-44.6328,36.4864-64.5439,40.3907A11.008,11.008,0,0,1,107.2246,387.9961ZM75.2324,22.41A23.2589,23.2589,0,0,0,52,45.6431V277.1206a23.2589,23.2589,0,0,0,23.2324,23.2329H91.1172a31.3239,31.3239,0,0,1,23.5381,10.66,30.9686,30.9686,0,0,1,7.456,24.437A80.8084,80.8084,0,0,1,105.13,375.4a2.7933,2.7933,0,0,0-.2061,3.2686,2.65,2.65,0,0,0,2.8838,1.2695c18.4043-3.6089,43.6494-12.9458,59.3955-36.9307a78.9223,78.9223,0,0,0,9.5147-20.4219,31.0977,31.0977,0,0,1,29.9033-22.2319H429.2578A23.2589,23.2589,0,0,0,452.49,277.1206V45.6431A23.2589,23.2589,0,0,0,429.2578,22.41Z"/><path d="M288,244H144a20,20,0,0,1,0-40H288a20,20,0,0,1,0,40ZM144,212a12,12,0,0,0,0,24H288a12,12,0,0,0,0-24Z"/><path d="M368,180H144a20,20,0,0,1,0-40H368a20,20,0,0,1,0,40ZM144,148a12,12,0,0,0,0,24H368a12,12,0,0,0,0-24Z"/><path d="M368,116H144a20,20,0,0,1,0-40H368a20,20,0,0,1,0,40ZM144,84a12,12,0,0,0,0,24H368a12,12,0,0,0,0-24Z"/></svg>